<svg xmlns="http://www.w3.org/2000/svg" viewBox="0 0 1600 560" preserveAspectRatio="xMidYMax slice" fill="none" aria-hidden="true"><g stroke="currentColor" stroke-width="1.2" stroke-linecap="round" stroke-linejoin="round"><path d="M1585 0L1588 6L1588 6L1591 12L1594 18L1594 18L1597 24L1600 28"/><path d="M1545 0L1547 6L1550 12L1551 14L1553 18L1556 24L1557 26L1559 30L1562 36L1563 37L1566 42L1569 47L1570 48L1574 54L1575 56L1578 60L1581 64L1583 66L1588 71L1588 72L1593 77L1594 78L1599 83L1600 84"/><path d="M1498 0L1501 4L1502 6L1507 12L1507 13L1511 18L1514 22L1515 24L1519 30L1520 31L1523 36L1526 40L1527 42L1532 48L1532 48L1536 54L1538 57L1540 60L1544 65L1545 66L1550 71L1551 73L1554 77L1557 80L1559 83L1563 88L1564 89L1569 95L1570 95L1575 101L1575 101L1581 107L1581 107L1588 113L1588 113L1594 119L1594 119L1600 124"/><path d="M654 0L655 0L661 4L663 6L667 8L672 12L673 12L680 16L683 18L686 20L692 23L694 24L698 26L704 28L709 30L710 30L717 32L723 34L729 35L735 35L741 35L747 35L754 34L760 33L766 31L770 30L772 29L778 27L784 24L785 23L791 20L794 18L797 16L802 12L803 11L809 7L810 6L815 1L817 0"/><path d="M1330 0L1337 6L1344 12L1352 18L1359 22L1365 25L1378 29L1384 30L1396 32L1408 33L1421 33L1433 34L1446 35L1452 36L1464 40L1470 43L1478 48L1487 54L1495 59L1501 65L1507 70L1514 76L1520 82L1526 88L1532 94L1538 101L1544 107L1551 113L1557 119L1563 125L1569 131L1575 137L1581 142L1588 148L1594 153L1600 157"/><path d="M0 35L3 30L6 25L7 24L11 18L12 16L15 12L19 7L20 6L25 0L25 0"/><path d="M412 0L419 6L426 11L432 15L439 19L450 24L457 26L469 29L476 30L488 30L495 30L507 28L519 26L527 24L537 21L550 18L556 17L568 14L581 14L593 14L605 16L613 18L624 22L630 24L642 30L649 32L655 36L667 42L673 45L680 48L692 52L698 55L710 58L717 60L729 62L741 62L754 61L764 60L772 57L782 54L791 50L797 47L805 42L814 36L822 31L828 26L834 21L840 16L846 11L853 6L860 0"/><path d="M1286 0L1291 6L1297 14L1303 22L1310 29L1315 36L1321 42L1327 48L1333 54L1341 59L1347 64L1353 67L1361 71L1371 75L1380 77L1390 79L1402 80L1415 81L1427 81L1439 82L1447 83L1458 86L1470 89L1476 92L1483 95L1494 101L1501 106L1507 110L1514 115L1520 120L1526 125L1533 131L1540 137L1547 143L1553 149L1560 155L1567 161L1574 167L1581 173L1588 178L1594 183L1600 188"/><path d="M0 101L4 95L6 93L9 89L12 85L14 83L19 78L19 77L25 72L26 71L31 67L33 66L37 62L41 60L43 58L49 55L53 54L56 52L62 50L68 49L74 48L74 48L80 47L86 46L93 46L99 45L105 45L111 44L117 43L123 42L124 42L130 40L136 38L142 36L142 36L148 33L154 30L154 29L161 26L164 24L167 22L172 18L173 17L179 12L180 12L185 7L187 6L192 2L193 0"/><path d="M366 0L373 6L380 12L387 18L394 24L401 30L408 35L414 39L420 43L427 48L439 53L445 56L457 59L463 61L476 62L488 62L500 61L508 60L519 57L531 55L537 53L550 50L562 48L568 47L581 46L593 47L602 48L612 49L624 52L630 54L642 58L649 61L661 66L667 68L676 71L686 75L693 77L704 81L716 83L723 84L735 86L747 85L760 84L766 83L778 79L785 77L797 72L803 69L810 66L820 60L828 55L834 51L840 47L848 42L857 36L865 31L871 27L878 24L890 18L896 16L908 12L914 11L927 9L939 10L951 11L958 12L970 15L982 18L988 19L1001 22L1013 24L1019 24L1032 25L1041 24L1050 22L1063 19L1069 16L1079 12L1087 7L1093 4L1100 0"/><path d="M1248 0L1254 7L1260 14L1266 22L1272 30L1277 36L1282 42L1286 48L1291 54L1297 61L1303 69L1310 75L1316 82L1322 87L1328 93L1334 97L1341 102L1350 107L1359 111L1365 113L1378 117L1390 118L1400 119L1408 119L1421 120L1433 120L1446 121L1458 123L1467 125L1476 128L1484 131L1495 137L1501 140L1507 144L1515 149L1523 155L1531 161L1538 166L1544 171L1551 176L1557 182L1563 187L1569 192L1575 197L1582 203L1589 209L1597 214"/><path d="M0 152L6 145L12 138L19 132L25 127L31 122L37 118L46 113L56 109L62 107L74 103L84 101L93 100L105 97L115 95L124 93L134 89L142 86L148 83L157 77L166 71L173 66L179 61L185 55L192 50L198 44L204 38L210 31L216 25L222 19L229 13L235 7L241 1"/><path d="M0 196L6 190L12 184L19 178L25 173L34 167L43 161L49 158L58 155L68 152L78 149L86 147L99 144L105 143L117 140L125 137L136 133L142 130L151 125L161 119L167 115L173 110L179 105L185 100L192 94L198 88L204 82L210 76L216 69L222 63L229 57L235 51L241 45L247 40L253 34L259 30L268 24L278 19L284 16L297 13L309 12L321 14L331 18L340 22L346 25L353 30L362 36L370 42L377 47L383 51L389 56L395 60L403 66L413 71L420 75L426 78L439 83L445 85L457 88L467 89L476 90L488 89L494 89L507 87L519 84L525 83L537 80L550 78L556 77L568 75L581 74L593 74L605 75L618 76L624 78L636 81L644 83L655 87L662 89L673 93L680 95L692 99L701 101L710 103L723 105L735 106L747 106L760 105L772 102L778 101L791 97L797 94L808 89L815 86L822 83L831 77L840 73L846 69L853 66L865 60L871 56L877 54L890 49L896 47L908 44L920 42L933 42L945 43L958 45L970 47L976 49L988 52L997 54L1007 55L1019 57L1032 58L1044 57L1056 55L1063 54L1075 49L1081 47L1092 42L1100 38L1106 34L1114 30L1124 24L1131 20L1137 17L1147 12L1155 9L1165 6L1174 4L1186 4L1194 6L1205 10L1211 13L1219 18L1226 24L1233 30L1239 36L1245 42L1250 48L1255 54L1260 60L1266 67L1273 74L1279 82L1285 89L1291 95L1296 101L1302 107L1308 113L1314 119L1321 125L1328 130L1334 134L1341 138L1351 143L1359 146L1370 149L1378 150L1390 152L1402 153L1415 153L1427 153L1439 153L1452 154L1458 155L1470 158L1480 161L1489 164L1495 167L1506 173L1514 177L1520 181L1526 186L1533 191L1541 197L1548 203L1556 209L1563 214L1569 220L1575 225L1581 230L1588 235L1594 240L1600 245"/><path d="M0 238L6 231L12 225L19 220L25 214L34 209L43 203L49 200L57 197L68 193L74 191L86 187L97 185L105 183L117 179L124 177L133 173L142 169L148 165L156 161L165 155L173 149L179 144L185 139L192 133L198 128L204 122L210 116L216 110L222 104L229 98L235 92L241 86L247 80L253 75L259 71L267 66L277 60L284 56L293 54L303 52L315 52L323 54L334 57L341 60L352 65L358 69L364 72L373 77L383 83L389 87L395 91L403 95L414 101L420 104L429 107L439 110L451 113L457 114L469 115L482 114L494 113L500 112L513 110L525 107L531 106L544 103L552 101L562 99L575 98L587 97L599 97L612 98L624 100L630 102L642 105L652 107L661 110L672 113L680 115L692 119L698 120L710 123L723 125L729 125L741 125L750 125L760 124L772 122L783 119L791 117L800 113L809 110L815 107L828 101L834 98L840 95L853 89L859 87L866 83L877 79L883 77L896 73L905 71L914 70L927 70L939 70L948 71L958 73L970 76L977 77L988 80L1001 83L1007 84L1019 86L1032 87L1044 87L1056 86L1069 84L1075 82L1087 78L1093 75L1102 71L1112 67L1118 64L1127 60L1137 55L1143 53L1155 48L1161 47L1174 45L1186 46L1194 48L1205 52L1211 55L1218 60L1225 66L1232 71L1239 77L1245 83L1250 89L1256 95L1261 101L1267 107L1273 113L1279 120L1285 127L1291 133L1297 139L1303 144L1310 149L1317 155L1325 161L1334 166L1341 170L1348 173L1359 177L1367 179L1378 181L1390 182L1402 182L1415 182L1427 182L1439 182L1452 183L1461 185L1470 186L1483 190L1489 192L1498 197L1507 201L1514 205L1520 209L1528 214L1537 220L1544 226L1551 231L1557 237L1563 242L1569 247L1575 253L1581 258L1588 263L1594 269L1600 274"/><path d="M0 279L6 272L12 265L19 259L25 254L31 249L38 244L49 238L56 235L62 232L74 228L80 226L93 222L99 220L111 216L117 214L130 209L136 206L143 203L154 197L161 192L167 188L173 184L179 179L186 173L193 167L200 161L206 155L213 149L219 143L225 137L232 131L238 125L245 119L252 113L259 108L266 103L272 100L280 95L290 91L297 89L309 88L321 88L327 89L340 93L347 95L358 100L364 103L372 107L383 113L389 116L396 119L408 125L414 127L425 131L432 133L445 136L452 137L463 138L476 138L484 137L494 136L507 133L518 131L525 129L537 126L544 125L556 122L568 120L578 119L587 118L599 118L611 119L618 120L630 122L642 125L649 126L661 129L668 131L680 134L691 137L698 139L710 141L723 143L729 143L741 143L751 143L760 142L772 140L785 137L791 135L803 131L809 129L818 125L828 121L834 119L846 113L853 111L861 107L871 104L878 101L890 98L902 96L908 95L920 94L933 95L939 95L951 97L964 100L970 101L982 104L993 107L1001 109L1013 112L1023 113L1032 114L1044 115L1056 114L1065 113L1075 111L1087 108L1093 106L1106 102L1112 100L1123 95L1131 92L1139 89L1149 86L1161 84L1168 83L1177 83L1186 85L1198 88L1205 91L1213 95L1222 101L1229 107L1236 112L1242 118L1248 124L1254 130L1260 136L1266 142L1273 148L1279 154L1285 159L1291 165L1297 170L1303 175L1310 180L1316 185L1326 191L1334 195L1341 198L1353 203L1359 204L1371 207L1383 209L1390 209L1402 209L1415 209L1427 209L1439 209L1452 210L1464 212L1475 214L1483 217L1493 220L1501 224L1507 228L1516 232L1525 238L1532 243L1538 248L1544 253L1551 258L1557 263L1563 269L1569 275L1575 281L1581 286L1588 293L1594 299L1600 305"/><path d="M0 323L5 316L10 310L15 304L20 298L26 292L33 286L41 280L49 274L56 271L62 268L74 263L80 260L91 256L99 253L108 250L117 246L124 244L135 238L142 235L148 231L156 226L165 220L173 215L179 210L185 205L192 200L198 195L204 189L210 184L216 178L222 172L229 167L235 161L242 155L249 149L257 143L265 137L272 133L278 130L288 125L297 122L309 120L321 120L334 122L346 125L352 127L363 131L371 134L377 137L389 142L395 145L407 149L414 151L426 155L432 156L445 158L457 160L469 160L482 159L494 157L504 155L513 153L525 150L531 148L544 145L554 143L562 141L575 139L587 138L599 138L612 139L624 140L636 142L642 143L655 146L667 149L673 150L686 153L693 155L704 157L717 159L729 160L741 160L754 160L766 158L778 156L785 154L797 151L803 149L815 145L822 142L834 137L840 135L851 131L859 128L868 125L877 122L890 119L896 118L908 117L920 117L933 117L945 119L951 120L964 123L972 125L982 128L994 131L1001 133L1013 136L1020 137L1032 139L1044 140L1056 140L1069 139L1081 137L1087 136L1100 133L1106 131L1118 127L1126 125L1137 122L1149 119L1155 118L1168 117L1180 118L1186 119L1198 123L1205 126L1214 131L1223 137L1229 141L1236 146L1242 151L1248 156L1254 162L1260 167L1266 173L1273 179L1280 185L1287 191L1295 197L1303 203L1310 207L1316 211L1322 215L1333 220L1341 224L1347 226L1359 230L1371 232L1378 233L1390 234L1402 235L1415 235L1427 235L1439 235L1452 236L1464 237L1470 239L1483 242L1489 244L1501 250L1507 253L1514 257L1522 262L1530 268L1538 274L1544 280L1551 285L1557 291L1563 297L1569 303L1575 310L1581 316L1586 322L1591 328L1596 334"/><path d="M0 377L3 369L6 363L12 352L17 346L21 340L26 334L31 328L37 322L44 316L52 310L61 304L68 300L74 297L84 292L93 288L99 285L111 280L117 277L124 274L136 268L142 264L148 261L155 256L164 250L172 244L179 239L185 234L192 229L198 224L204 218L210 213L216 207L222 202L229 196L235 191L242 185L250 179L258 173L266 167L272 163L278 160L289 155L297 152L309 150L321 149L322 149L334 150L346 152L356 155L364 157L374 161L383 164L391 167L402 170L410 173L420 176L432 178L439 179L451 180L463 180L476 179L482 179L494 177L507 174L513 173L525 169L535 167L544 165L556 162L562 160L575 158L587 157L599 157L612 157L624 158L636 160L643 161L655 163L667 166L673 167L686 170L698 173L704 174L717 176L729 177L741 177L754 176L766 175L778 173L785 171L797 168L803 166L815 162L822 160L834 155L840 153L852 149L859 147L871 143L877 142L890 139L902 138L914 137L927 138L939 139L951 141L958 143L970 146L980 149L988 151L1001 155L1007 157L1019 159L1027 161L1038 162L1050 163L1063 164L1075 163L1087 161L1093 160L1106 158L1118 155L1124 153L1137 151L1149 149L1155 148L1168 148L1177 149L1186 151L1198 154L1205 157L1212 161L1222 167L1229 171L1236 176L1242 181L1248 185L1254 191L1262 197L1269 203L1277 209L1284 214L1291 220L1297 224L1303 228L1310 232L1320 238L1328 243L1334 246L1346 250L1353 252L1365 255L1371 256L1384 258L1396 259L1408 259L1421 259L1433 259L1446 260L1458 261L1464 262L1476 265L1485 268L1495 272L1501 275L1510 280L1519 286L1526 291L1532 296L1538 301L1544 307L1551 313L1557 320L1563 327L1569 334L1574 340L1578 346L1583 351L1588 359L1594 368L1598 375"/><path d="M13 560L11 554L9 542L7 530L6 524L5 512L4 500L3 489L3 477L3 465L4 453L6 441L7 435L10 423L12 414L15 405L19 397L23 387L26 381L31 373L37 365L43 357L49 351L55 346L62 340L68 336L74 331L80 328L91 322L99 317L105 314L113 310L124 304L130 301L136 297L144 292L153 286L161 280L167 276L173 271L179 266L185 261L192 256L198 250L205 244L212 238L219 232L225 226L232 220L239 214L247 209L253 203L259 199L266 195L272 191L284 185L290 182L300 179L309 177L321 175L334 176L346 177L353 179L364 182L375 185L383 187L395 191L402 192L414 195L420 197L432 199L445 200L457 200L469 200L482 198L490 197L500 194L513 191L519 190L531 186L537 185L550 181L562 179L568 177L581 176L593 174L605 174L618 175L630 176L642 178L649 179L661 181L673 184L680 185L692 188L704 190L710 191L723 192L735 193L747 193L760 192L768 191L778 189L791 186L797 184L809 181L815 179L828 174L834 172L846 168L853 166L865 163L873 161L883 159L896 157L908 156L920 157L933 158L945 160L951 161L964 165L971 167L982 170L991 173L1001 176L1012 179L1019 180L1032 183L1043 185L1050 185L1063 186L1075 186L1086 185L1093 184L1106 182L1118 180L1125 179L1137 177L1149 176L1161 175L1174 176L1186 179L1192 180L1204 185L1211 188L1217 191L1226 197L1235 203L1242 207L1248 212L1254 216L1260 221L1267 226L1275 232L1283 238L1291 244L1297 248L1303 252L1310 256L1321 262L1328 266L1334 269L1347 273L1353 275L1365 278L1375 280L1384 281L1396 282L1408 282L1421 283L1433 283L1446 284L1458 285L1464 287L1476 290L1483 292L1495 297L1501 301L1507 305L1515 310L1523 316L1530 322L1536 328L1542 334L1547 340L1552 346L1557 351L1563 360L1569 369L1573 375L1577 381L1581 390L1586 399L1589 405L1594 417L1596 423L1600 435"/><path d="M33 560L31 550L29 542L27 530L26 518L25 506L25 500L24 489L25 481L25 471L27 459L29 447L31 440L34 429L37 421L42 411L45 405L49 397L56 389L62 381L67 375L74 369L80 364L86 359L93 355L99 350L106 346L115 340L124 334L130 330L136 326L142 321L150 316L158 310L165 304L173 298L179 292L185 287L192 282L198 276L204 271L210 265L216 260L222 255L229 249L235 244L241 238L249 232L257 226L266 220L272 217L278 213L288 209L297 205L305 203L315 201L327 200L340 200L352 202L358 203L371 206L382 209L389 210L402 213L408 215L420 217L432 219L445 220L457 220L469 219L482 217L494 214L500 213L513 210L519 208L531 204L538 203L550 199L561 197L568 195L581 193L593 192L605 191L618 192L630 193L642 194L655 196L661 198L673 200L686 203L692 204L704 206L717 207L729 208L741 209L754 208L766 207L778 204L787 203L797 200L809 197L815 195L828 191L834 189L846 185L853 183L865 180L871 179L883 176L896 175L908 175L920 175L933 177L944 179L951 180L964 184L970 186L982 189L988 191L1001 195L1007 197L1019 200L1029 203L1038 204L1050 206L1063 207L1075 207L1087 206L1100 205L1112 204L1122 203L1131 202L1143 200L1155 200L1168 201L1180 203L1186 204L1198 208L1205 210L1213 214L1223 220L1229 223L1236 227L1243 232L1252 238L1260 244L1266 249L1273 253L1279 258L1285 262L1294 268L1303 274L1310 278L1316 281L1324 286L1334 291L1341 293L1353 297L1359 299L1371 302L1384 304L1390 304L1402 305L1415 306L1427 306L1439 307L1452 309L1458 310L1470 313L1479 316L1489 320L1495 323L1502 328L1510 334L1518 340L1524 346L1530 351L1535 357L1540 363L1545 369L1551 378L1557 387L1560 393L1563 399L1569 411L1571 417L1575 427L1578 435L1581 447L1583 453L1585 465L1587 477L1588 483L1589 494L1590 506L1590 518L1590 530L1589 542L1588 554L1587 560"/><path d="M57 560L55 554L52 542L50 530L49 521L49 512L49 500L49 489L50 483L51 471L54 459L56 452L60 441L62 435L68 424L72 417L77 411L81 405L86 399L93 393L99 387L105 381L112 375L119 369L126 363L133 357L141 351L148 346L154 340L161 335L167 329L173 324L179 318L185 313L192 307L198 302L204 296L210 290L216 285L222 279L229 274L235 268L242 262L250 256L258 250L266 245L272 241L278 237L288 232L297 229L304 226L315 224L327 223L340 223L352 224L364 226L371 227L383 230L395 232L402 234L414 236L426 238L435 238L445 239L457 238L463 238L476 236L488 234L495 232L507 229L517 226L525 224L537 220L544 218L556 215L562 214L575 211L587 209L594 209L605 208L618 208L624 209L636 210L649 211L661 214L667 215L680 217L692 219L698 220L710 222L723 223L735 224L747 224L760 223L772 221L778 220L791 217L802 214L809 212L822 209L828 207L840 203L846 201L859 198L865 197L877 194L890 193L902 192L914 192L927 194L939 196L945 197L958 200L966 203L976 206L984 209L995 212L1003 214L1013 218L1024 220L1032 222L1044 225L1056 226L1063 227L1075 227L1087 227L1096 226L1106 226L1118 225L1131 224L1143 223L1155 223L1168 224L1180 226L1186 227L1198 231L1205 234L1215 238L1223 243L1229 246L1236 250L1245 256L1254 262L1260 266L1266 271L1273 275L1280 280L1289 286L1297 292L1303 295L1310 299L1318 304L1328 309L1334 312L1344 316L1353 319L1363 322L1371 324L1384 326L1396 327L1402 328L1415 329L1427 330L1439 331L1452 333L1458 335L1470 338L1476 341L1486 346L1495 351L1501 355L1507 360L1514 366L1520 372L1526 379L1532 387L1536 393L1540 399L1544 407L1549 417L1552 423L1557 435L1559 441L1562 453L1564 459L1566 471L1568 483L1569 489L1570 500L1571 512L1571 524L1571 536L1571 548L1570 560"/><path d="M83 560L80 551L78 542L77 530L76 518L76 506L76 494L78 483L80 473L83 465L86 455L90 447L93 441L99 432L105 423L109 417L114 411L119 405L125 399L130 393L136 387L142 381L148 375L154 369L161 363L167 357L173 351L179 345L185 339L192 333L198 326L204 320L210 315L216 309L222 303L229 297L235 292L242 286L249 280L257 274L265 268L272 264L278 260L286 256L297 251L303 249L315 246L327 245L338 244L340 244L352 245L364 247L377 249L385 250L395 252L408 254L420 256L426 257L439 257L451 257L463 256L469 256L482 253L494 251L500 249L513 245L519 243L531 239L537 238L550 234L556 232L568 229L581 227L587 226L599 225L612 224L624 225L636 226L642 227L655 228L667 231L677 232L686 234L698 236L710 238L717 238L729 239L741 239L754 239L760 238L772 237L785 234L792 232L803 230L815 226L822 224L834 221L840 219L853 216L859 214L871 212L883 210L896 209L908 209L920 210L933 212L945 214L951 216L964 220L970 222L982 226L988 228L1001 232L1007 234L1019 238L1025 239L1038 242L1050 244L1056 245L1069 246L1081 246L1093 246L1106 246L1118 245L1130 244L1137 244L1149 244L1156 244L1168 245L1180 247L1190 250L1198 253L1207 256L1217 261L1223 264L1230 268L1240 274L1248 279L1254 283L1260 287L1267 292L1276 298L1285 304L1291 308L1297 312L1303 316L1313 322L1322 327L1328 330L1336 334L1347 338L1353 340L1365 344L1372 346L1384 348L1396 350L1408 351L1415 352L1427 354L1439 356L1448 357L1458 360L1467 363L1476 368L1483 371L1489 375L1496 381L1503 387L1509 393L1514 399L1520 407L1526 417L1529 423L1532 429L1537 441L1540 447L1543 459L1545 465L1548 477L1550 489L1551 494L1552 506L1553 518L1553 530L1553 542L1553 554"/><path d="M109 560L107 548L105 538L104 530L104 518L104 506L105 499L107 489L110 477L112 471L117 459L119 453L124 445L130 435L133 429L138 423L142 417L148 409L154 401L161 393L166 387L171 381L176 375L182 369L187 363L192 357L198 351L204 345L210 339L216 333L222 327L229 321L235 315L241 310L248 304L255 298L263 292L272 286L278 282L284 279L295 274L303 271L314 268L321 267L334 265L346 265L358 266L371 268L377 269L389 271L402 273L411 274L420 275L432 276L445 276L457 275L469 274L476 273L488 270L496 268L507 265L515 262L525 259L533 256L544 253L553 250L562 248L575 245L581 244L593 242L605 241L618 241L630 241L642 243L655 244L661 245L673 247L686 250L692 251L704 253L717 254L729 255L741 255L754 254L766 253L778 251L785 250L797 247L806 244L815 242L827 238L834 236L846 233L853 231L865 229L877 227L883 226L896 225L908 225L919 226L927 227L939 230L949 232L958 235L968 238L976 241L986 244L995 247L1003 250L1013 253L1023 256L1032 258L1044 261L1050 262L1063 264L1075 265L1087 265L1100 265L1112 264L1124 264L1137 264L1149 264L1161 265L1174 267L1181 268L1192 271L1200 274L1211 278L1217 281L1226 286L1236 291L1242 295L1248 299L1255 304L1264 310L1273 316L1279 320L1285 324L1291 328L1299 334L1309 340L1316 344L1322 347L1330 351L1341 356L1347 359L1358 363L1365 366L1378 369L1384 371L1396 373L1408 375L1415 376L1427 379L1438 381L1446 383L1457 387L1464 390L1470 394L1479 399L1486 405L1492 411L1498 417L1503 423L1507 430L1514 440L1517 447L1520 454L1524 465L1526 471L1529 483L1531 494L1532 500L1534 512L1535 524L1535 536L1535 548L1534 560"/><path d="M135 560L132 548L131 536L130 524L131 512L132 500L135 489L136 483L140 471L142 465L148 453L150 447L154 440L161 429L165 423L168 417L173 411L179 402L185 394L191 387L195 381L200 375L206 369L211 363L216 357L222 351L229 345L235 339L241 333L247 327L254 322L261 316L269 310L278 304L284 301L290 298L303 292L309 290L321 288L334 286L340 286L352 286L358 286L371 288L383 289L395 291L402 292L414 294L426 295L439 295L451 295L463 293L472 292L482 290L494 287L500 285L513 281L519 279L531 274L537 272L550 268L556 266L568 263L575 262L587 259L599 258L612 257L624 257L636 258L649 259L661 261L667 262L680 264L692 267L703 268L710 269L723 270L735 271L747 270L760 269L769 268L778 266L791 264L797 262L809 259L819 256L828 254L840 250L846 249L859 246L867 244L877 243L890 242L902 241L914 242L927 244L933 245L945 248L953 250L964 254L972 256L982 260L988 262L1001 266L1007 269L1019 272L1025 274L1038 277L1050 280L1056 281L1069 282L1081 283L1093 283L1106 283L1118 283L1131 283L1143 283L1155 283L1168 285L1174 286L1186 289L1196 292L1205 295L1211 298L1223 304L1229 307L1236 311L1243 316L1253 322L1260 327L1266 331L1273 335L1279 340L1288 346L1296 351L1303 356L1310 360L1316 364L1325 369L1334 374L1341 378L1348 381L1359 386L1365 388L1378 392L1384 394L1396 397L1403 399L1415 402L1426 405L1433 407L1443 411L1452 415L1458 418L1465 423L1473 429L1479 435L1484 441L1489 447L1495 456L1499 465L1502 471L1507 483L1508 489L1511 500L1513 512L1514 518L1515 530L1516 542L1516 554"/><path d="M158 560L156 548L154 536L154 530L154 518L155 512L156 500L159 489L161 482L164 471L167 464L172 453L174 447L179 438L184 429L188 423L192 417L198 408L204 400L209 393L213 387L218 381L223 375L229 369L235 363L241 356L247 350L253 345L259 340L267 334L276 328L284 322L290 319L298 316L309 311L315 310L327 307L340 306L352 306L364 307L377 308L389 310L395 311L408 312L420 314L432 314L445 314L457 313L469 311L476 310L488 307L498 304L507 301L516 298L525 294L532 292L544 288L550 286L562 282L569 280L581 277L593 275L604 274L612 274L624 274L632 274L642 275L655 277L667 279L676 280L686 282L698 284L710 285L719 286L729 286L741 287L751 286L760 285L772 283L785 281L791 279L803 276L811 274L822 271L832 268L840 266L853 263L859 261L871 259L883 258L896 257L908 258L920 259L933 261L939 263L951 266L958 268L970 272L976 274L988 279L995 281L1007 285L1013 287L1025 291L1032 293L1044 296L1056 298L1063 299L1075 300L1087 301L1100 301L1112 301L1124 301L1137 301L1149 301L1161 303L1169 304L1180 306L1192 310L1198 312L1208 316L1217 320L1223 323L1232 328L1242 334L1248 338L1254 342L1260 346L1268 351L1277 357L1285 363L1291 368L1297 372L1303 376L1311 381L1320 387L1328 392L1334 396L1341 399L1351 405L1359 409L1365 412L1378 417L1384 419L1395 423L1402 426L1411 429L1421 433L1427 435L1439 441L1446 445L1452 449L1458 454L1464 460L1470 468L1476 477L1479 483L1483 490L1487 500L1489 507L1491 518L1493 530L1494 542L1495 554"/><path d="M178 560L177 548L176 536L176 524L176 512L178 500L179 494L182 483L185 472L188 465L192 457L196 447L199 441L204 432L209 423L213 417L217 411L222 404L229 396L235 388L241 381L247 375L253 369L259 363L266 358L272 353L278 348L284 344L293 340L303 335L309 333L321 329L330 328L340 327L352 326L364 327L371 328L383 329L395 331L408 332L420 333L426 334L439 334L447 334L457 333L469 331L482 328L488 326L500 322L507 320L517 316L525 313L533 310L544 306L550 304L562 300L568 298L581 295L593 292L599 292L612 291L624 291L636 291L644 292L655 293L667 295L680 297L686 298L698 300L710 302L723 303L735 303L747 303L760 301L772 300L780 298L791 295L803 292L809 290L822 287L828 285L840 282L846 280L859 277L871 275L879 274L890 273L902 273L912 274L920 275L933 277L943 280L951 282L962 286L970 289L979 292L988 295L995 298L1007 302L1013 304L1025 308L1032 310L1044 313L1056 315L1063 316L1075 317L1087 318L1100 318L1112 318L1124 318L1137 319L1149 319L1161 321L1168 322L1180 324L1192 328L1198 330L1207 334L1217 338L1223 341L1231 346L1240 351L1248 356L1254 361L1260 365L1267 369L1275 375L1283 381L1291 387L1297 392L1303 397L1310 401L1316 406L1324 411L1332 417L1341 422L1347 426L1353 430L1362 435L1371 440L1378 443L1384 447L1396 453L1402 456L1408 459L1418 465L1427 471L1433 475L1439 481L1446 488L1451 494L1455 500L1458 507L1463 518L1465 524L1467 536L1469 548L1470 560"/><path d="M198 560L197 554L196 542L195 530L196 518L197 506L198 500L201 489L204 478L206 471L210 461L214 453L217 447L222 436L227 429L231 423L235 417L241 409L247 401L253 394L259 388L266 382L272 376L278 372L284 367L290 363L302 357L309 355L318 351L327 349L340 348L352 347L364 348L377 349L389 351L396 351L408 353L420 354L432 355L445 354L457 353L467 351L476 350L488 346L494 344L506 340L513 337L521 334L531 329L537 327L550 322L556 320L568 316L575 314L587 311L596 310L605 309L618 308L630 308L642 309L649 310L661 311L673 314L686 316L692 317L704 318L717 320L729 320L741 320L754 319L766 317L775 316L785 314L797 310L803 308L815 305L822 303L834 299L840 298L853 294L865 292L871 291L883 290L896 289L908 290L920 291L927 292L939 295L949 298L958 301L966 304L976 307L983 310L995 314L1001 317L1013 321L1019 323L1032 326L1038 328L1050 331L1063 333L1071 334L1081 335L1093 335L1106 335L1118 336L1131 336L1143 336L1155 338L1168 339L1174 341L1186 344L1192 346L1205 351L1211 353L1219 357L1229 363L1236 367L1242 371L1248 375L1257 381L1265 387L1272 393L1279 398L1285 403L1291 408L1297 413L1303 418L1310 423L1317 429L1325 435L1332 441L1340 447L1347 452L1353 456L1359 461L1365 465L1372 471L1381 477L1389 483L1396 489L1402 494L1408 500L1415 506L1420 512L1424 518L1427 524L1433 536L1435 542L1437 554"/><path d="M217 560L216 554L215 542L215 530L215 518L216 509L218 500L220 489L222 482L226 471L229 465L234 453L238 447L241 441L247 431L253 423L258 417L263 411L269 405L275 399L282 393L290 387L297 384L303 380L314 375L321 373L334 371L345 369L352 369L360 369L371 370L383 372L395 373L408 375L414 376L426 377L439 377L451 376L457 375L469 373L482 370L488 368L499 363L507 360L514 357L525 352L531 350L541 346L550 342L556 339L568 335L575 333L587 330L599 328L605 327L618 326L630 326L642 327L649 328L661 330L673 332L685 334L692 335L704 337L717 338L729 338L741 338L754 337L766 335L773 334L785 331L796 328L803 325L815 322L822 320L834 316L840 314L853 311L859 309L871 307L883 306L896 305L908 306L920 308L932 310L939 312L951 315L958 317L970 322L976 324L986 328L995 331L1002 334L1013 338L1019 340L1032 343L1041 346L1050 348L1063 350L1075 351L1081 352L1093 352L1106 353L1118 353L1131 353L1143 354L1155 355L1168 357L1174 358L1186 362L1192 364L1205 369L1211 372L1218 375L1228 381L1236 386L1242 390L1248 394L1255 399L1262 405L1270 411L1277 417L1284 423L1291 429L1297 435L1303 440L1310 446L1316 452L1322 458L1328 463L1334 469L1341 475L1347 481L1353 488L1359 494L1365 500L1370 506L1375 512L1380 518L1384 524L1390 534L1394 542L1396 548L1400 560"/><path d="M236 560L235 548L234 542L234 530L235 519L235 512L238 500L241 489L243 483L247 471L250 465L253 459L259 448L264 441L269 435L274 429L280 423L286 417L294 411L303 406L309 402L316 399L327 396L340 393L346 393L358 393L365 393L377 394L389 396L402 398L409 399L420 400L432 401L445 401L457 400L463 399L476 395L483 393L494 389L500 386L511 381L519 378L525 375L536 369L544 366L550 363L562 358L568 356L581 352L587 350L599 348L612 346L624 346L636 346L649 347L661 349L673 351L680 352L692 354L704 356L716 357L723 358L735 358L742 357L754 356L766 354L776 351L785 349L796 346L803 343L814 340L822 337L832 334L840 331L852 328L859 326L871 324L883 322L896 322L908 322L920 324L933 327L939 328L951 332L958 334L970 338L976 341L988 346L995 348L1004 351L1013 355L1022 357L1032 360L1044 363L1050 365L1063 367L1075 368L1087 369L1093 369L1106 370L1118 370L1131 371L1143 371L1155 373L1168 375L1174 376L1186 380L1192 382L1205 387L1211 390L1217 393L1227 399L1236 405L1242 409L1248 414L1254 419L1260 424L1266 429L1273 435L1279 441L1285 447L1291 453L1297 459L1303 465L1310 472L1316 479L1322 486L1328 494L1333 500L1338 506L1342 512L1347 520L1353 530L1356 536L1359 544L1363 554"/><path d="M258 560L256 548L255 536L256 524L257 512L259 501L261 494L266 483L268 477L272 470L278 460L284 453L289 447L295 441L303 435L309 431L315 427L327 423L334 421L346 419L358 419L371 420L383 422L389 423L402 426L414 428L422 429L432 430L445 430L454 429L463 427L476 424L482 421L492 417L500 413L507 410L515 405L525 400L531 396L537 393L548 387L556 383L562 381L575 376L581 374L593 370L599 369L612 368L624 367L636 367L649 369L655 370L667 372L680 374L687 375L698 377L710 379L723 380L735 379L747 378L760 376L766 375L778 371L785 369L797 365L803 362L815 358L822 355L832 351L840 349L851 346L859 344L871 341L882 340L890 339L902 339L909 340L920 341L933 344L940 346L951 349L959 351L970 356L976 358L988 363L995 365L1006 369L1013 372L1023 375L1032 378L1044 381L1050 382L1063 384L1075 386L1087 387L1098 387L1106 387L1118 388L1131 388L1143 389L1155 391L1168 393L1174 394L1186 398L1192 400L1204 405L1211 409L1217 412L1225 417L1233 423L1241 429L1248 434L1254 440L1260 445L1266 451L1273 458L1279 464L1285 471L1290 477L1295 483L1299 489L1304 494L1310 503L1315 512L1319 518L1322 524L1328 536L1330 542L1334 554L1336 560"/><path d="M284 560L281 548L281 536L281 524L283 512L285 506L289 494L292 489L297 482L303 474L309 468L315 463L322 459L334 454L340 453L352 451L364 452L371 453L383 456L394 459L402 461L414 465L420 466L432 469L445 469L457 468L467 465L476 461L482 458L491 453L500 447L507 443L513 438L519 434L526 429L535 423L544 418L550 414L556 410L566 405L575 401L581 399L593 395L602 393L612 392L624 391L636 392L649 393L655 394L667 396L680 399L686 400L698 402L710 404L723 405L735 404L747 402L760 400L766 398L778 393L785 391L793 387L803 383L809 380L821 375L828 372L836 369L846 366L853 363L865 360L877 358L883 357L896 357L908 357L914 358L927 360L939 363L945 365L958 369L964 371L975 375L982 378L990 381L1001 386L1007 388L1019 392L1025 394L1038 398L1044 399L1056 402L1069 403L1081 405L1092 405L1100 405L1112 406L1124 406L1137 407L1149 408L1161 410L1168 411L1180 415L1187 417L1198 422L1205 425L1212 429L1221 435L1229 441L1236 446L1242 451L1248 456L1254 462L1260 469L1266 476L1272 483L1277 489L1281 494L1285 500L1291 510L1296 518L1299 524L1303 534L1307 542L1310 550L1312 560"/><path d="M337 560L334 558L330 554L327 549L327 548L325 542L324 536L325 530L326 524L327 521L329 518L334 512L334 512L340 508L344 506L346 506L352 505L358 506L360 506L364 508L371 511L372 512L377 517L378 518L382 524L383 527L384 530L384 536L383 542L383 542L380 548L377 552L375 554L371 558L367 560"/><path d="M509 560L506 554L501 542L500 536L500 524L500 518L504 506L507 500L513 491L518 483L523 477L528 471L534 465L540 459L546 453L554 447L562 441L568 437L575 433L583 429L593 425L601 423L612 421L624 420L636 421L649 422L655 423L667 426L678 429L686 431L698 434L707 435L717 436L729 435L735 435L747 432L757 429L766 425L772 423L783 417L791 413L797 410L806 405L815 400L822 397L829 393L840 388L846 386L859 382L865 380L877 377L890 376L896 375L902 375L914 376L927 378L939 381L945 383L958 387L964 390L973 393L982 397L988 400L1001 404L1007 407L1019 411L1025 413L1038 417L1044 418L1056 421L1069 422L1075 423L1087 424L1100 424L1112 425L1124 425L1137 426L1149 427L1161 429L1168 431L1180 434L1186 436L1196 441L1205 445L1211 449L1217 453L1224 459L1231 465L1238 471L1244 477L1249 483L1254 489L1260 496L1266 505L1271 512L1274 518L1279 527L1283 536L1285 542L1289 554"/><path d="M570 560L567 554L562 544L560 536L559 524L560 512L562 506L568 494L572 489L577 483L583 477L591 471L599 466L605 464L618 462L630 461L642 463L649 465L661 469L667 471L679 477L686 480L692 483L704 486L717 488L729 485L736 483L746 477L754 472L760 468L766 463L772 458L779 453L787 447L795 441L803 435L809 430L815 426L822 422L830 417L840 411L846 408L854 405L865 401L872 399L883 397L896 395L908 396L920 397L932 399L939 401L951 405L958 407L968 411L976 414L982 417L995 422L1001 425L1011 429L1019 432L1029 435L1038 437L1050 440L1056 441L1069 443L1081 444L1093 445L1106 445L1118 445L1131 446L1143 447L1149 447L1161 450L1173 453L1180 455L1188 459L1198 464L1205 468L1211 472L1217 477L1223 483L1230 489L1236 495L1242 503L1248 511L1252 518L1256 524L1260 533L1264 542L1267 548L1270 560"/><path d="M782 560L780 548L779 536L780 524L782 512L785 506L790 494L793 489L797 482L803 474L809 467L815 460L822 454L828 448L834 443L840 439L846 435L857 429L865 425L871 423L883 420L896 418L908 417L920 419L933 421L941 423L951 426L958 429L970 434L976 436L986 441L995 445L1001 447L1013 452L1019 455L1032 459L1038 460L1050 463L1059 465L1069 466L1081 467L1093 467L1106 467L1118 467L1131 468L1143 469L1155 471L1161 472L1174 476L1180 478L1188 483L1198 489L1205 493L1211 499L1217 505L1223 512L1228 518L1232 524L1236 530L1242 541L1245 548L1248 557"/><path d="M817 560L816 548L815 542L816 536L817 524L820 512L822 506L827 494L831 489L835 483L840 476L846 469L853 464L859 459L869 453L877 449L883 446L896 444L908 443L920 443L933 445L939 447L951 451L958 453L970 459L976 462L983 465L995 470L1001 473L1008 477L1019 481L1025 483L1038 487L1044 489L1056 491L1069 493L1081 493L1093 493L1106 493L1118 493L1131 493L1143 494L1149 495L1161 498L1168 500L1180 506L1186 510L1192 515L1198 520L1205 526L1211 534L1216 542L1219 548L1223 557"/><path d="M849 560L849 548L849 536L852 524L854 518L859 508L863 500L868 494L874 489L882 483L890 479L896 476L908 474L920 474L933 476L939 477L951 481L958 484L967 489L976 493L982 497L989 500L1000 506L1007 510L1013 514L1023 518L1032 522L1038 524L1050 528L1063 529L1075 530L1087 529L1100 528L1112 527L1124 527L1137 527L1149 529L1155 531L1167 536L1174 541L1180 546L1186 553L1191 560"/><path d="M893 560L893 554L894 548L896 542L896 542L899 536L902 531L903 530L908 526L912 524L914 523L920 522L927 521L933 522L939 524L941 524L945 526L951 529L953 530L958 533L961 536L964 538L968 542L970 544L973 548L976 552L978 554L981 560"/></g></svg>